# xmcd
#
# Track frame offsets:
#	150
#	20068
#	40791
#	58234
#	75414
#	95928
#	110788
#	131005
#	150059
#	170012
#	185821
#	203233
#
# Disc length: 2999 seconds
#
# Revision: 1
# Processed by: cddbd v1.5PL3 Copyright (c) Steve Scherf et al.
# Submitted via: dBpowerAMP V4.0
#
DISCID=a70bb50c
DTITLE=Side A - Acoustic Love Songs
DYEAR=2002
DGENRE=Acoustic
TTITLE0=Till
TTITLE1=Forevermore
TTITLE2=Tell Me
TTITLE3=If Only
TTITLE4=Ang Aking Awitin
TTITLE5=Will I Ever
TTITLE6=I Still Cry
TTITLE7=Think it Over
TTITLE8=Sa Ugoy Ng Duyan
TTITLE9=Breakaway
TTITLE10=I Accept
TTITLE11=Acoustic Medley
EXTD=sidea 'if only'\njesus cayabyab
EXTT0=
EXTT1=
EXTT2=
EXTT3=
EXTT4=
EXTT5=
EXTT6=
EXTT7=
EXTT8=
EXTT9=
EXTT10=
EXTT11=
PLAYORDER=
